<svg viewBox="0 0 380 340" xmlns="http://www.w3.org/2000/svg"><rect fill="none" height="340" rx="12" width="380"/><path d="m2 298.94 50.91-.16-.05-3.63-38.33.13z" fill="#f2f2f2"/><path d="m67.74 114.95h93.71v179.61h-93.71z" fill="#f2f2f2"/><path d="m260.52 78.06h93.71v216.5h-93.71z" fill="#f2f2f2"/><path d="m163.05 51.07h93.71v243.5h-93.71z" fill="#f2f2f2"/><g fill="none" opacity=".4" stroke="#9f9fa3" stroke-miterlimit="10" stroke-width="2"><path d="m248.93 215.14v2.53h-2.66"/><path d="m240.69 217.67h-63.92" stroke-dasharray="12.56 12.56"/><path d="m173.98 217.67h-2.66v-2.53"/><path d="m171.32 210.17v-37.19" stroke-dasharray="11.77 11.77"/><path d="m171.32 170.54v-2.53h2.66"/><path d="m179.51 168.02h63.97" stroke-dasharray="12.56 12.56"/><path d="m246.27 168.01h2.66v2.53"/><path d="m248.93 175.47v37.19" stroke-dasharray="11.77 11.77"/></g><g fill="none" opacity=".4" stroke="#9f9fa3" stroke-miterlimit="10" stroke-width="2"><path d="m346.09 187.94v2.52h-2.65"/><path d="m337.9 190.46h-63.96" stroke-dasharray="12.56 12.56"/><path d="m271.15 190.46h-2.66v-2.52"/><path d="m268.49 183.01v-37.19" stroke-dasharray="11.77 11.77"/><path d="m268.49 143.34v-2.53h2.66"/><path d="m276.73 140.81h63.92" stroke-dasharray="12.56 12.56"/><path d="m343.44 140.81h2.65v2.53"/><path d="m346.09 148.31v37.14" stroke-dasharray="11.77 11.77"/></g><g fill="none" opacity=".4" stroke="#9f9fa3" stroke-miterlimit="10" stroke-width="2"><path d="m153.04 221.84v2.52h-2.66"/><path d="m144.85 224.36h-63.96" stroke-dasharray="12.56 12.56"/><path d="m78.1 224.36h-2.66v-2.52"/><path d="m75.44 216.87v-37.19" stroke-dasharray="11.77 11.77"/><path d="m75.44 177.24v-2.53h2.66"/><path d="m83.67 174.71h63.93" stroke-dasharray="12.56 12.56"/><path d="m150.38 174.71h2.66v2.53"/><path d="m153.04 182.17v37.18" stroke-dasharray="11.77 11.77"/></g><path d="m152.86 159.26v-36.85h-77.38v47.16h66.54z" fill="#ffd"/><path d="m10.81 295.91h343.38v-3.58h-258.78z" fill="#f2f2f2"/><path d="m254.64 174.33h26.25v4.59h-26.25z" fill="#d9dbdd"/><path d="m188.54 105.81h5.31v.97h-5.31z" fill="#f9c010"/><path d="m190.68 103.77h1.02v5.05h-1.02z" fill="#f9c010"/><path d="m178.93 72.03 7.13 6.79-1.34 1.28-7.14-6.79z" fill="#a3ca01"/><path d="m177.57 78.82 7.13-6.79 1.35 1.28-7.14 6.79z" fill="#a3ca01"/><path d="m281.29 199.78 6.2 5.89-1.16 1.11-6.2-5.9z" fill="#a3ca01"/><path d="m280.13 205.69 6.19-5.9 1.16 1.11-6.19 5.89z" fill="#a3ca01"/><path d="m258.84 29a4.81 4.81 0 1 0 5 4.8 4.93 4.93 0 0 0 -5-4.8zm0 8a3.12 3.12 0 1 1 3.28-3.12 3.19 3.19 0 0 1 -3.28 3.12z" fill="#ff8004"/><path d="m360.82 102.58 7.14 6.79-1.35 1.28-7.13-6.79z" fill="#a3ca01"/><path d="m359.48 109.41 7.13-6.79 1.35 1.28-7.14 6.79z" fill="#a3ca01"/><path d="m372.65 121.44a4.81 4.81 0 1 0 5 4.8 4.93 4.93 0 0 0 -5-4.8zm0 7.92a3.12 3.12 0 1 1 3.28-3.12 3.19 3.19 0 0 1 -3.28 3.12z" fill="#ff8004"/><path d="m141.84 169.62v-10.32h10.85z" fill="#cacad8"/><path d="m152.86 267.61v-36.85h-77.38v47.17h66.54z" fill="#f2dba0"/><path d="m141.84 277.97v-10.32h10.85z" fill="#cacad8"/><path d="m123.82 188.78h-30.63a1 1 0 0 1 -1-1 1 1 0 0 1 1-1h30.63a1 1 0 0 1 1 1 1 1 0 0 1 -1 1z" fill="#9f9fa3"/><path d="m113.38 193.83h-20.32a.82.82 0 0 1 -.84-.8v-.34a.82.82 0 0 1 .84-.8h20.32a.82.82 0 0 1 .84.8v.31a.85.85 0 0 1 -.84.83z" fill="#9f9fa3"/><path d="m248.75 96.93v-36.85h-77.38v47.17h66.53z" fill="#fff"/><path d="m237.73 107.29v-10.32h10.84z" fill="#cacad8"/><path d="m219.27 78.74h-30.64a1 1 0 0 1 -1-1 1 1 0 0 1 1-1h30.63a1 1 0 0 1 1 1 1 1 0 0 1 -.99 1z" fill="#9f9fa3"/><path d="m208.77 83.83h-20.31a.82.82 0 0 1 -.84-.8v-.34a.82.82 0 0 1 .84-.8h20.32a.82.82 0 0 1 .84.8v.31a.82.82 0 0 1 -.85.83z" fill="#9f9fa3"/><path d="m248.31 150.5v-36.89h-77.38v47.2h66.53z" fill="#f2dba0"/><path d="m237.28 160.86v-10.32h10.85z" fill="#cacad8"/><path d="m218.82 132.3h-30.63a1 1 0 0 1 -1-1 1 1 0 0 1 1-1h30.63a1 1 0 0 1 1 1 1 1 0 0 1 -1 1z" fill="#9f9fa3"/><path d="m208.33 137.36h-20.33a.82.82 0 0 1 -.84-.8v-.34a.82.82 0 0 1 .84-.8h20.32a.82.82 0 0 1 .84.8v.34a.79.79 0 0 1 -.83.8z" fill="#9f9fa3"/><path d="m345.03 123.29v-36.89h-77.38v47.21h66.54z" fill="#f2dba0"/><path d="m334.01 133.65v-10.32h10.84z" fill="#cacad8"/><g fill="#9f9fa3"><path d="m315.59 105.1h-30.59a1 1 0 0 1 -1-1 1 1 0 0 1 1-1h30.63a1 1 0 0 1 1 1 1 1 0 0 1 -1.04 1z"/><path d="m305.1 110.15h-20.32a.82.82 0 0 1 -.84-.8v-.35a.82.82 0 0 1 .84-.8h20.32a.82.82 0 0 1 .84.8v.34a.85.85 0 0 1 -.84.81z"/><path d="m124.27 254.05h-30.64a1 1 0 0 1 -1-1 1 1 0 0 1 1-1h30.63a1 1 0 0 1 1 1 1 1 0 0 1 -.99 1z"/><path d="m110.72 248.2h-17.31a.76.76 0 0 1 -.75-.72v-.48a.76.76 0 0 1 .75-.72h17.31a.76.76 0 0 1 .75.72v.46a.7.7 0 0 1 -.75.74z"/><path d="m113.82 259.11h-20.32a.82.82 0 0 1 -.84-.8v-.31a.82.82 0 0 1 .84-.8h20.32a.82.82 0 0 1 .84.8v.34a.85.85 0 0 1 -.84.77z"/><path d="m123.38 135.63h-30.63a1 1 0 0 1 -1-1 1 1 0 0 1 1-1h30.63a1 1 0 0 1 1 1 1 1 0 0 1 -1 1z"/><path d="m135.56 140.73h-42.81a1 1 0 0 1 -1-1 1 1 0 0 1 1-1h42.81a1 1 0 0 1 1 1 1 1 0 0 1 -1 1z"/><path d="m134.67 147h-41.92a1 1 0 0 1 -1-1 1 1 0 0 1 1-1h41.92a1 1 0 0 1 1 1 1 1 0 0 1 -1 1z"/><path d="m112.93 152h-20.31a.82.82 0 0 1 -.84-.8v-.34a.82.82 0 0 1 .84-.8h20.32a.82.82 0 0 1 .84.8v.34a.85.85 0 0 1 -.85.8z"/></g><path d="m37.64 291.57v6.32l15.84.72-12.52-5.6-2.62-2.82z" fill="#00293c"/><path d="m21.04 292.63-.4 5.98h9.96l-7.35-6.32z" fill="#00293c"/><path d="m24.8 232.91 6.95-6.82 6.86 29.98 1.64 5.94 1.86 31.25-5.09 2.06-3.46-31.45-10.75-28.09z" fill="#3388bc"/><path d="m18.64 221.46 8.86 8.97-1.29 6.9-3.45 26.03 2.3 30.91-5.22.13-2.97-23.33.71-8.34-4.43-33.1z" fill="#3399bc"/><path d="m14.97 226.93 5.4 3.96 10.89-.72 1.59-9.35 2.31-9.34 4.25-15.59-10.67-3.32-7.93 6.31z" fill="#d1dae9"/><path d="m29 184.73-1.55 8.93.14 2.65 6.19.26.93-8.38z" fill="#ffc145"/><path d="m26.26 176.9 8.06-.38a33.42 33.42 0 0 1 3.85 4.72c.71 1.43.13 10.44.13 10.44s-6.73.88-8.77-3-3.85-6.68-3.85-6.68z" fill="#fcd590"/><path d="m31.17 199.35 15.1-6.95 6.46-13.98 2.75 4.17-7.57 16.21-11.34 5.01z" fill="#d1dae9"/><path d="m52.29 179.85 1.68-4.3 1.06-2.02h3.54l-2.61 1.01 6.46-2.19.58.93-7.7 6.19z" fill="#ffc145"/><path d="m37.19 176.44.27.97.18 2.82-8.1 1.85 1.54 3.62-.48-.5-2.22-.97-.22.88 1.82 2.74-1.6 2.4-2.74-5.43-1.37-5.69 3.09-2.57 5.85-.92.84-2.28.93.21.35.55z" fill="#24465f"/><path d="m21.61 199.9 8.68 4.59 5.75 11.2 15.67 3.58 1.69 3.53-22.45-1.76-9.83-15.5z" fill="#bdc6d5"/><path d="m132.54 211.81v-37.1h-77.86v47.51h66.93z" fill="#e4ffff"/><path d="m121.43 222.26v-10.41h10.94z" fill="#cacad8"/><path d="m110.72 199.47h-34.22a1 1 0 0 1 -1-1 1 1 0 0 1 1-1h34.22a1 1 0 0 1 1 1 1.07 1.07 0 0 1 -1 1z" fill="#9f9fa3"/><path d="m96.42 194.59h-19.78a1.14 1.14 0 0 1 -1.15-1.09v-1.6a1.14 1.14 0 0 1 1.15-1.09h19.78a1.14 1.14 0 0 1 1.15 1.09v1.6a1.09 1.09 0 0 1 -1.15 1.09z" fill="#9f9fa3"/><path d="m53.79 223.1-1.37-3.58 3.41-2.44-.22.67-.18 1.18 6.07 2.11.53 2.06-1.64.55h-4.38z" fill="#ffc145"/><path d="m326.79 183.43v-37.52h-78.71v48h67.69z" fill="#dfe6ff"/><path d="m315.59 193.96v-10.49h11.07z" fill="#cacad8"/><path d="m304.75 170.92h-34.58a1 1 0 0 1 -1-1 1 1 0 0 1 1-1h34.57a1 1 0 0 1 1 1 1 1 0 0 1 -.99 1z" fill="#9f9fa3"/><path d="m290.32 166h-20a1.16 1.16 0 0 1 -1.2-1.14v-1.6a1.16 1.16 0 0 1 1.2-1.14h20a1.16 1.16 0 0 1 1.2 1.14v1.6a1.16 1.16 0 0 1 -1.2 1.14z" fill="#9f9fa3"/><path d="m258.88 312h61.27l-3.54-2.86-42.63-.05z" fill="#f2f2f2"/><path d="m327.1 171.81-.66-.47-1.02 3.03-.97 2.11 1.81 3.24-1.64 12.85 3.77.04v-11.54z" fill="#ffc145"/><path d="m318.29 253.38-5.84-2.99-4.78 8 8.63 48.01-.97 2.31 1.94-.58 1.02-42.03z" fill="#fcd590"/><path d="m313.51 253.38-7.21-7.88-2.04 6.74 6.73 53.23-2.57 4.17 4.07-1.51 1.02-42.03z" fill="#fcd590"/><path d="m324.05 218.26 4.82-28.89-3.41-4.97-4.82 29.73z" fill="#27256b"/><path d="m306.47 218.51 4.25 4.21-2.21-8.93a3.86 3.86 0 0 1 -1.28-.59l-10-5.9-18.77-16 6.46 7.24 8.19 11z" fill="#27256b"/><path d="m321.44 217.41-9.65-3.16c-1.15-.34 1.64-6.27 2.12-7.79l.53-2.27c.49-1.52 3.41-1 4.56-.63l-1.68-.51c1.15.34 1.24 1.81 1.24 1.81-.44 1.48 4.03 12.89 2.88 12.55z" fill="#ffc145"/><path d="m311.21 199.73c.35 3.16-2.17 3 2.52 5.56 2 1.09 4.74-1.22 5.71-4.17s0-5.85-2.21-6.53-6.42 1.41-6.02 5.14z" fill="#fcd590"/><path d="m324.09 200.65c-2 1.47-3.45 4.72-5.84 4-1.42-.42-2.48-3.54-3.41-5.73 0-.13-.84 1.31-.89 1.22-.58-1.43.49-3-.35-4.25-1-1.47-.62-5.56 3.59-4.63.84.17 2.7 1.6 3.76 2.11 2.26 1.05 5.05 5.94 3.14 7.28z" fill="#00293c"/><path d="m308.6 211.14-6.78 51.67 19.31 10.53 3.49-63.8z" fill="#27256b"/><ellipse cx="318.87" cy="206.34" fill="#00293c" rx="1.33" ry="3.07"/><path d="m319.34 207.87c.72-.13 1.57 1.12 1.89 2.79s0 3.13-.72 3.25-1.57-1.12-1.89-2.79 0-3.12.72-3.25z" fill="#00293c"/><path d="m309.53 300.5 3.18.51.14 6.99-6.11 3.92 3.85-6.83z" fill="#00293c"/><path d="m316.48 310.69h.53l.53-4.08-1.73-.21z"/><path d="m314.4 309.14 2.61.5 1.06-8.13-2.74-.16.48 5.51z"/><path d="m310.99 306.86 1.95 5.06v-6.91h-1.46z" fill="#27256b"/><path d="m277.96 189.41-.79-.04.93 3.07.48 2.28 3.46 1.64 10.14 11.87 2.34-3.74-9.96-8.18z" fill="#ffc145"/><path d="m149.32 74.67 5.41-1.97 2.35 5.82-5.42 1.97z" fill="#ffc145"/><path d="m127.9 106.95 4.07 31.92h4.07l1.02-27.08z" fill="#1c3d82"/><path d="m135.87 114.11 20.54-1.35-7.13-9.68-21.38 3.87z" fill="#1c3d82"/><path d="m146.22 139.84-1.01 2.91 2.03 4.84 2.04-4.84-1.02-3.88z" fill="#0f0c05"/><path d="m132.99 138.87-8.1 4.85 11.15-1.94-2.03-3.88z" fill="#0f0c05"/><path d="m144.06 80.25-4 10.15-4.34 12.25 4.87.17 3.81-11.71 2.35-2.48-1.33-4.17c-.08-.04-1.19-4.71-1.36-4.21z" fill="#27256b"/><path d="m154.68 70.69c1.28 2.57-.89 6.27-2.52 7-3 1.35-4-.76-5.31-3.33s-1-5.26.62-6 5.88-.24 7.21 2.33z" fill="#fcd590"/><path d="m143.48 66.35 1.33 3.79 1.06.89 5.93-1.39.75 2.86.05-.5.88-1.52.58.42.18 2.44 1.15 1.35.04-5.05-1.81-4.04-3.1-.26-4.52.85-1.01.08-.49.51.04.5z" fill="#24465f"/><path d="m122.85 104.05h32.54v1.43h-32.54z" fill="#e7eef4"/><path d="m157.42 77.47c-1.28.93-3.1 2.4-5.09 2.4-1.51 0-.89-1.35-2-1.94l-6.24 2.27 4.21 23.33 11.2 5.81 4.07-5.81 1-23.2z" fill="#0f0c05"/><path d="m153.26 100.72c0 .8-1.33.84-3.94 2.11-1.33.63-1.33-.51-2.21-.84-.71-.25-3.1.76-3.1.42 0-.51 1.33-1.26 2.66-1.68.75-.25 6-2.11 7-2.11 2.69.04-.41 1.3-.41 2.1z" fill="#ffc145"/><path d="m164.73 80.67 7 20.13-4.91.17-5.72-14.82 2.3-4.8.89-.67c-.18.41.26-.51.44-.01z" fill="#27256b"/><path d="m172.16 101.56-19.52.38.18-3.28 13.19-1.27 4.87.84z" fill="#27256b"/><path d="m144.45 104.05h-22.31l-1.86-15.46h22.31z" fill="#e7eef4"/><path d="m144.68 114.7 16.95-.17.84-8.55-8.63-1.43-13.72 4.34z" fill="#1c3e6e"/><path d="m140.51 109.1 4.7 31.71h4.07l1.02-27.08z" fill="#1c3e6e"/><ellipse cx="131.48" cy="97.31" fill="#fff" rx="1.51" ry="1.43"/></svg>